# Blender 4.3.2
# www.blender.org
mtllib luoye_005.mtl
o 平面.003
v 14.822944 0.122499 -0.019831
v 16.117027 0.122499 -0.019831
v 14.822944 0.122499 -1.313915
v 16.117027 0.122499 -1.313915
v 15.104228 0.198989 1.334595
v 16.355991 -0.136420 0.038674
v 13.852465 0.534398 0.038674
v 15.104228 0.198988 -1.257247
v 14.187874 0.198989 0.955029
v 16.020582 0.198989 0.955029
v 14.187874 0.198988 -0.877680
v 16.020582 0.198989 -0.877680
v 14.073251 0.202424 0.415467
v 15.349006 0.070670 1.724632
v 15.389008 0.340672 -0.852798
v 16.664762 0.208918 0.456367
v 14.467410 0.059704 -0.483447
v 14.438128 0.347046 1.326360
v 16.299885 0.064295 -0.454526
v 16.270603 0.351638 1.355280
vn -0.0000 1.0000 -0.0000
vn 0.2588 0.9659 -0.0000
vn -0.0041 0.9946 0.1041
vn -0.0000 0.9876 -0.1568
vt 0.000000 0.000000
vt 1.000000 0.000000
vt 1.000000 1.000000
vt 0.000000 1.000000
s 0
usemtl 材质.001
f 1/1/1 2/2/1 4/3/1 3/4/1
usemtl 材质
f 5/1/2 6/2/2 8/3/2 7/4/2
f 9/1/1 10/2/1 12/3/1 11/4/1
f 13/1/3 14/2/3 16/3/3 15/4/3
f 17/1/4 18/2/4 20/3/4 19/4/4
