# Blender 4.3.2
# www.blender.org
mtllib luoye_003.mtl
o 平面.018
v -15.103965 0.468608 1.604988
v -13.673851 0.213353 0.230353
v -16.479454 0.564203 0.156233
v -15.049340 0.308948 -1.218401
v -16.086527 0.308640 1.180071
v -14.105403 0.581814 1.202953
v -16.047901 0.195743 -0.816366
v -14.066778 0.468917 -0.793485
v -14.170950 0.016093 1.667326
v -12.804925 -0.349933 0.253113
v -15.536976 0.382118 0.253113
v -14.170951 0.016093 -1.161101
v -15.170951 0.016093 1.253113
v -13.170950 0.016093 1.253113
v -15.170951 0.016093 -0.746888
v -13.170950 0.016093 -0.746888
v -15.429442 0.198989 1.731838
v -14.177679 -0.136420 0.435917
v -16.681206 0.534398 0.435917
v -15.429442 0.198989 -0.860004
v -16.345797 0.198989 1.352272
v -14.513088 0.198989 1.352272
v -16.345797 0.198989 -0.480438
v -14.513088 0.198989 -0.480438
v -15.223048 -0.164473 3.228569
v -13.145943 -0.245613 1.971198
v -16.465191 0.110210 1.158893
v -14.388086 0.029070 -0.098478
v -16.261658 -0.326807 2.438904
v -13.939883 0.054549 3.043765
v -15.671251 -0.189952 0.086326
v -13.349476 0.191404 0.691188
v -14.071086 0.283448 1.544485
v -12.024711 -0.248681 0.348192
v -15.307322 0.229329 -0.546142
v -13.260946 -0.302800 -1.742435
v -15.129288 0.054166 0.798648
v -12.775599 0.341022 1.327607
v -14.556433 -0.360374 -1.525556
v -12.202744 -0.073518 -0.996597
vn 0.1253 0.9907 -0.0536
vn -0.1357 0.9890 -0.0586
vn 0.2588 0.9659 -0.0000
vn -0.0000 1.0000 -0.0000
vn 0.0870 0.9930 0.0796
vn -0.1660 0.9860 0.0157
vn 0.1775 0.9755 -0.1302
vn -0.0758 0.9782 -0.1932
vt 0.000000 0.000000
vt 1.000000 0.000000
vt 1.000000 1.000000
vt 0.000000 1.000000
s 0
usemtl 材质
f 1/1/1 2/2/1 4/3/1 3/4/1
f 5/1/2 6/2/2 8/3/2 7/4/2
f 9/1/3 10/2/3 12/3/3 11/4/3
f 13/1/4 14/2/4 16/3/4 15/4/4
f 17/1/3 18/2/3 20/3/3 19/4/3
f 21/1/4 22/2/4 24/3/4 23/4/4
f 25/1/5 26/2/5 28/3/5 27/4/5
f 29/1/6 30/2/6 32/3/6 31/4/6
f 33/1/7 34/2/7 36/3/7 35/4/7
f 37/1/8 38/2/8 40/3/8 39/4/8
