# Blender 4.3.2
# www.blender.org
mtllib luoye_001.mtl
o 平面.001
v 0.541442 0.016092 1.667326
v 1.907467 -0.349933 0.253113
v -0.824584 0.382118 0.253113
v 0.541441 0.016092 -1.161101
v -0.458558 0.016092 1.253113
v 1.541441 0.016092 1.253113
v -0.458558 0.016092 -0.746887
v 1.541441 0.016092 -0.746887
v -0.717051 0.198988 1.731838
v 0.534713 -0.136420 0.435916
v -1.968815 0.534397 0.435917
v -0.717051 0.198988 -0.860005
v -1.633406 0.198988 1.352271
v 0.199304 0.198989 1.352271
v -1.633406 0.198988 -0.480438
v 0.199304 0.198989 -0.480438
v -0.510656 -0.164473 3.228569
v 1.566449 -0.245613 1.971198
v -1.752799 0.110210 1.158893
v 0.324306 0.029069 -0.098477
v -1.549266 -0.326807 2.438904
v 0.772509 0.054549 3.043765
v -0.958859 -0.189952 0.086327
v 1.362917 0.191404 0.691188
v -2.171564 -0.021749 1.752109
v -0.046523 0.037751 0.576274
v -3.348730 0.043928 -0.372014
v -1.223688 0.103428 -1.547849
v -3.157857 -0.315485 0.933829
v -0.907645 0.308650 1.603853
v -2.487608 -0.226972 -1.399593
v -0.237395 0.397163 -0.729570
v -0.947754 0.312184 0.442166
v 1.430985 -0.052722 0.774393
v -0.626236 0.217418 -1.963988
v 1.752503 -0.147488 -1.631761
v -1.303313 0.026544 -0.790970
v 0.198691 0.463190 1.067862
v 0.606058 -0.298493 -2.257457
v 2.108061 0.138153 -0.398625
v -0.391574 0.468608 1.604988
v 1.038540 0.213353 0.230353
v -1.767064 0.564203 0.156233
v -0.336950 0.308948 -1.218401
v -1.374137 0.308640 1.180072
v 0.606988 0.581814 1.202953
v -1.335512 0.195743 -0.816366
v 0.645612 0.468917 -0.793485
vn 0.2588 0.9659 -0.0000
vn -0.0000 1.0000 -0.0000
vn 0.0870 0.9930 0.0796
vn -0.1660 0.9860 0.0157
vn -0.0083 0.9993 0.0355
vn -0.2568 0.9657 -0.0371
vn 0.1541 0.9879 -0.0183
vn -0.0061 0.9746 -0.2240
vn 0.1253 0.9907 -0.0536
vn -0.1357 0.9890 -0.0586
vt 0.000000 0.000000
vt 1.000000 0.000000
vt 1.000000 1.000000
vt 0.000000 1.000000
s 0
usemtl 材质
f 1/1/1 2/2/1 4/3/1 3/4/1
f 5/1/2 6/2/2 8/3/2 7/4/2
f 9/1/1 10/2/1 12/3/1 11/4/1
f 13/1/2 14/2/2 16/3/2 15/4/2
f 17/1/3 18/2/3 20/3/3 19/4/3
f 21/1/4 22/2/4 24/3/4 23/4/4
f 25/1/5 26/2/5 28/3/5 27/4/5
f 29/1/6 30/2/6 32/3/6 31/4/6
f 33/1/7 34/2/7 36/3/7 35/4/7
f 37/1/8 38/2/8 40/3/8 39/4/8
f 41/1/9 42/2/9 44/3/9 43/4/9
f 45/1/10 46/2/10 48/3/10 47/4/10
